<svg width="25" height="21" viewBox="0 0 25 21" fill="none" xmlns="http://www.w3.org/2000/svg">
<path d="M20.926 3.62027C19.8324 2.52733 18.5317 1.66357 17.1001 1.07956C15.6685 0.495553 14.1348 0.203036 12.5887 0.219136C11.0424 0.20743 9.50899 0.501892 8.07697 1.08555C6.64496 1.66921 5.34262 2.53052 4.24502 3.61983C3.14743 4.70915 2.27628 6.00493 1.6818 7.43249C1.08731 8.86004 0.781252 10.3911 0.78125 11.9375V18.5C0.781932 19.1214 1.02908 19.7172 1.46847 20.1566C1.90786 20.596 2.50361 20.8431 3.125 20.8438H5C5.62139 20.8431 6.21714 20.596 6.65653 20.1566C7.09592 19.7172 7.34307 19.1214 7.34375 18.5V13.8125C7.34307 13.1911 7.09592 12.5954 6.65653 12.156C6.21714 11.7166 5.62139 11.4695 5 11.4688H1.72871C1.85031 8.67788 3.05041 6.04312 5.07618 4.11954C7.10195 2.19596 9.79525 1.13374 12.5887 1.15664C15.381 1.13551 18.0726 2.19852 20.0968 4.12192C22.1211 6.04532 23.3203 8.67908 23.4418 11.4688H20.1705C19.5491 11.4695 18.9534 11.7166 18.514 12.156C18.0746 12.5954 17.8274 13.1911 17.8268 13.8125V18.5C17.8274 19.1214 18.0746 19.7172 18.514 20.1566C18.9534 20.596 19.5491 20.8431 20.1705 20.8438H22.0455C22.6669 20.8431 23.2626 20.596 23.702 20.1566C24.1414 19.7172 24.3886 19.1214 24.3893 18.5V11.9375C24.3937 10.3906 24.0897 8.85827 23.495 7.43017C22.9004 6.00208 22.027 4.70687 20.9259 3.62027H20.926ZM5 12.4063C5.37284 12.4067 5.73029 12.555 5.99392 12.8186C6.25756 13.0822 6.40585 13.4397 6.40625 13.8125V18.5C6.40585 18.8729 6.25756 19.2303 5.99392 19.494C5.73029 19.7576 5.37284 19.9059 5 19.9063H3.125C2.75216 19.9059 2.39471 19.7576 2.13108 19.494C1.86744 19.2303 1.71915 18.8729 1.71875 18.5V12.4063H5ZM23.4519 18.5C23.4515 18.8729 23.3032 19.2303 23.0395 19.494C22.7759 19.7576 22.4185 19.9059 22.0456 19.9063H20.1706C19.7978 19.9059 19.4403 19.7576 19.1767 19.494C18.9131 19.2303 18.7648 18.8729 18.7644 18.5V13.8125C18.7648 13.4397 18.9131 13.0822 19.1767 12.8186C19.4403 12.555 19.7978 12.4067 20.1706 12.4063H23.4519V18.5Z" fill="#0B972A"/>
</svg>
