<svg width="20" height="20" viewBox="0 0 20 20" fill="none" xmlns="http://www.w3.org/2000/svg">
<path d="M10.804 14.5H10.6448L10.5149 14.592L6.02584 17.7728C6.02581 17.7728 6.02579 17.7728 6.02577 17.7729C5.97592 17.8082 5.91733 17.8291 5.85641 17.8333C5.79545 17.8376 5.7345 17.825 5.68021 17.797C5.62592 17.7689 5.58038 17.7265 5.54857 17.6743C5.51679 17.6222 5.49993 17.5624 5.49984 17.5013C5.49984 17.5013 5.49984 17.5012 5.49984 17.5011L5.49984 15V14.5H4.99984H4.37484C3.78915 14.5 3.22745 14.2673 2.81331 13.8532C2.39917 13.4391 2.1665 12.8774 2.1665 12.2917V5.20833C2.1665 4.62265 2.39917 4.06095 2.81331 3.64681C3.22745 3.23266 3.78915 3 4.37484 3H15.6248C15.9148 3 16.202 3.05712 16.4699 3.1681C16.7379 3.27908 16.9813 3.44174 17.1864 3.64681C17.3914 3.85187 17.5541 4.09531 17.6651 4.36324C17.7761 4.63117 17.8332 4.91833 17.8332 5.20833V12.2917C17.8332 12.5817 17.7761 12.8688 17.6651 13.1368C17.5541 13.4047 17.3914 13.6481 17.1864 13.8532C16.9813 14.0583 16.7379 14.2209 16.4699 14.3319C16.202 14.4429 15.9148 14.5 15.6248 14.5H10.804Z" stroke="#0B972A"/>
</svg>
