<svg width="124" height="60" viewBox="0 0 124 60" fill="none" xmlns="http://www.w3.org/2000/svg">
<path d="M21.5264 23.2554L21.5637 23.2593L21.6011 23.2604C22.3375 23.2819 24.2218 23.5226 25.6926 25.0458C24.5737 25.9888 22.8557 27.9312 22.8849 30.9631C22.9076 33.5587 24.0544 35.3149 25.2024 36.4067C25.729 36.9075 26.2569 37.2706 26.6811 37.5194C26.3997 38.2572 25.8624 39.4701 24.9956 40.697L24.9879 40.7079L24.9804 40.719C24.3587 41.6508 23.787 42.4673 23.1509 43.0618C22.5352 43.6372 21.926 43.9411 21.2243 43.9528L21.2181 43.9529C20.4592 43.9703 19.9715 43.763 19.2687 43.4644L19.2671 43.4637C18.536 43.1531 17.6434 42.7814 16.2915 42.7814C14.9438 42.7814 14.0453 43.1234 13.2935 43.437C13.248 43.456 13.2034 43.4747 13.1597 43.493C12.4979 43.7702 12.0221 43.9694 11.3225 43.9989C10.731 44.0208 10.1203 43.7308 9.4328 43.0852C8.74419 42.4385 8.10841 41.5586 7.46197 40.6364C6.26676 38.8886 5.18865 36.3971 4.73134 33.803C4.27232 31.1993 4.45825 28.6155 5.62984 26.584L5.62984 26.584L5.63195 26.5804C6.75951 24.6059 8.80096 23.3599 10.9427 23.326L10.9427 23.3261L10.9473 23.326C11.7047 23.3105 12.4817 23.5681 13.3269 23.9022C13.4261 23.9414 13.5286 23.9826 13.6328 24.0245C13.9421 24.1489 14.2666 24.2793 14.5648 24.3817C14.9632 24.5186 15.4291 24.6481 15.8991 24.6481C16.3839 24.6481 16.8896 24.4884 17.3062 24.3378C17.5339 24.2555 17.8164 24.1434 18.0961 24.0326C18.3048 23.9498 18.5118 23.8678 18.6932 23.7992C19.6681 23.4304 20.6187 23.1605 21.5264 23.2554Z" stroke="white" stroke-width="2"/>
<path d="M17.9986 17.935L17.9989 17.9346C18.6602 17.1593 19.6867 16.5205 20.6504 16.2063C20.5128 17.2817 20.0222 18.3274 19.3485 19.1747C18.64 20.0063 17.6487 20.6361 16.662 20.8491C16.802 19.7795 17.3544 18.6895 17.9986 17.935Z" stroke="white" stroke-width="2"/>
<path d="M49.1464 24.152L49.6224 25.048C49.2957 25.384 48.8524 25.65 48.2924 25.846C47.7324 26.042 47.1444 26.14 46.5284 26.14C45.0537 26.14 43.8544 25.6827 42.9304 24.768C42.0157 23.844 41.5584 22.6213 41.5584 21.1C41.5584 19.6533 41.9971 18.454 42.8744 17.502C43.7611 16.5407 44.9511 16.06 46.4444 16.06C47.6951 16.06 48.6891 16.3773 49.4264 17.012L48.8804 17.908C48.2271 17.4227 47.4197 17.18 46.4584 17.18C45.3944 17.18 44.5217 17.544 43.8404 18.272C43.1591 19 42.8184 19.9427 42.8184 21.1C42.8184 22.2667 43.1684 23.214 43.8684 23.942C44.5777 24.6607 45.5017 25.02 46.6404 25.02C47.6017 25.02 48.4371 24.7307 49.1464 24.152ZM56.5699 19.7L53.8119 22.71L56.8359 26H55.2819L52.4399 22.78L55.0999 19.7H56.5699ZM51.0539 26V19.7H52.1739V26H51.0539ZM58.3626 21.03L58.0686 20.134C58.6846 19.7513 59.3846 19.56 60.1686 19.56C61.0366 19.56 61.6572 19.7747 62.0306 20.204C62.4039 20.6333 62.5906 21.2773 62.5906 22.136V26H61.5266V25.188C61.0412 25.7947 60.3692 26.098 59.5106 26.098C58.9319 26.098 58.4652 25.9253 58.1106 25.58C57.7559 25.2253 57.5786 24.7493 57.5786 24.152C57.5786 23.5267 57.7979 23.0367 58.2366 22.682C58.6846 22.3273 59.2586 22.15 59.9586 22.15C60.6306 22.15 61.1532 22.2853 61.5266 22.556C61.5266 21.884 61.4332 21.3847 61.2466 21.058C61.0599 20.7313 60.6772 20.568 60.0986 20.568C59.5292 20.568 58.9506 20.722 58.3626 21.03ZM59.9026 25.09C60.5279 25.09 61.0692 24.8193 61.5266 24.278V23.48C61.1346 23.2 60.6632 23.06 60.1126 23.06C59.7392 23.06 59.4219 23.1487 59.1606 23.326C58.8992 23.5033 58.7686 23.76 58.7686 24.096C58.7686 24.404 58.8666 24.6467 59.0626 24.824C59.2679 25.0013 59.5479 25.09 59.9026 25.09ZM69.198 19.7V26H68.078V23.55C67.5927 23.858 67.0093 24.012 66.328 24.012C64.8347 24.012 64.088 23.2093 64.088 21.604V19.7H65.278V21.478C65.278 22.4673 65.7307 22.962 66.636 22.962C67.224 22.962 67.7047 22.8313 68.078 22.57V19.7H69.198ZM71.5559 21.03L71.2619 20.134C71.8779 19.7513 72.5779 19.56 73.3619 19.56C74.2299 19.56 74.8506 19.7747 75.2239 20.204C75.5972 20.6333 75.7839 21.2773 75.7839 22.136V26H74.7199V25.188C74.2346 25.7947 73.5626 26.098 72.7039 26.098C72.1252 26.098 71.6586 25.9253 71.3039 25.58C70.9492 25.2253 70.7719 24.7493 70.7719 24.152C70.7719 23.5267 70.9912 23.0367 71.4299 22.682C71.8779 22.3273 72.4519 22.15 73.1519 22.15C73.8239 22.15 74.3466 22.2853 74.7199 22.556C74.7199 21.884 74.6266 21.3847 74.4399 21.058C74.2532 20.7313 73.8706 20.568 73.2919 20.568C72.7226 20.568 72.1439 20.722 71.5559 21.03ZM73.0959 25.09C73.7212 25.09 74.2626 24.8193 74.7199 24.278V23.48C74.3279 23.2 73.8566 23.06 73.3059 23.06C72.9326 23.06 72.6152 23.1487 72.3539 23.326C72.0926 23.5033 71.9619 23.76 71.9619 24.096C71.9619 24.404 72.0599 24.6467 72.2559 24.824C72.4612 25.0013 72.7412 25.09 73.0959 25.09ZM76.8614 20.82V19.7H82.6014V20.82H80.2914V26H79.1714V20.82H76.8614ZM83.8254 26V19.7H84.9454V21.59H86.0934C86.9894 21.59 87.6287 21.7953 88.0114 22.206C88.394 22.6073 88.5854 23.1253 88.5854 23.76C88.5854 24.3947 88.3754 24.9267 87.9554 25.356C87.5354 25.7853 86.868 26 85.9534 26H83.8254ZM85.8834 22.64H84.9454V24.95H85.8694C86.8867 24.95 87.3954 24.5673 87.3954 23.802C87.3954 23.0273 86.8914 22.64 85.8834 22.64ZM93.2316 26V19.7C93.381 19.7 93.7123 19.6907 94.2256 19.672C94.7483 19.6533 95.1776 19.644 95.5136 19.644C97.3243 19.644 98.2296 20.1853 98.2296 21.268C98.2296 21.6413 98.113 21.9633 97.8796 22.234C97.6463 22.4953 97.343 22.654 96.9696 22.71V22.738C97.9496 22.9153 98.4396 23.41 98.4396 24.222C98.4396 25.4447 97.4736 26.056 95.5416 26.056C95.2616 26.056 94.851 26.0467 94.3096 26.028C93.7683 26.0093 93.409 26 93.2316 26ZM95.6956 23.172H94.3516V25.104C95.0236 25.132 95.453 25.146 95.6396 25.146C96.713 25.146 97.2496 24.81 97.2496 24.138C97.2496 23.494 96.7316 23.172 95.6956 23.172ZM95.5976 20.554C95.327 20.554 94.9116 20.568 94.3516 20.596V22.472H95.7656C96.1483 22.472 96.4563 22.3833 96.6896 22.206C96.923 22.0287 97.0396 21.7907 97.0396 21.492C97.0396 20.8667 96.559 20.554 95.5976 20.554Z" fill="white"/>
<path d="M40.9666 42L45.7826 30.736H46.9506L51.7666 42H50.3106L48.8706 38.608H43.7666L42.3426 42H40.9666ZM46.3266 32.544L44.3106 37.328H48.3426L46.3266 32.544ZM53.1598 45.2V34.8H54.4398V35.648C54.6958 35.3493 55.0425 35.1093 55.4798 34.928C55.9278 34.736 56.3971 34.64 56.8878 34.64C57.9011 34.64 58.7065 34.9813 59.3038 35.664C59.9118 36.336 60.2158 37.2107 60.2158 38.288C60.2158 39.3973 59.8691 40.32 59.1758 41.056C58.4825 41.792 57.5811 42.16 56.4718 42.16C55.6185 42.16 54.9411 41.9947 54.4398 41.664V45.2H53.1598ZM56.5198 35.84C55.6665 35.84 54.9731 36.1707 54.4398 36.832V40.4C54.9945 40.7733 55.6345 40.96 56.3598 40.96C57.1171 40.96 57.7198 40.7147 58.1678 40.224C58.6265 39.7333 58.8558 39.104 58.8558 38.336C58.8558 37.5893 58.6478 36.9867 58.2318 36.528C57.8158 36.0693 57.2451 35.84 56.5198 35.84ZM62.0504 45.2V34.8H63.3304V35.648C63.5864 35.3493 63.9331 35.1093 64.3704 34.928C64.8184 34.736 65.2878 34.64 65.7784 34.64C66.7918 34.64 67.5971 34.9813 68.1944 35.664C68.8024 36.336 69.1064 37.2107 69.1064 38.288C69.1064 39.3973 68.7598 40.32 68.0664 41.056C67.3731 41.792 66.4718 42.16 65.3624 42.16C64.5091 42.16 63.8318 41.9947 63.3304 41.664V45.2H62.0504ZM65.4104 35.84C64.5571 35.84 63.8638 36.1707 63.3304 36.832V40.4C63.8851 40.7733 64.5251 40.96 65.2504 40.96C66.0078 40.96 66.6104 40.7147 67.0584 40.224C67.5171 39.7333 67.7464 39.104 67.7464 38.336C67.7464 37.5893 67.5384 36.9867 67.1224 36.528C66.7064 36.0693 66.1358 35.84 65.4104 35.84ZM70.9411 40.08V30.8H72.2211V39.504C72.2211 39.9947 72.2851 40.3573 72.4131 40.592C72.5517 40.816 72.7704 40.928 73.0691 40.928C73.3571 40.928 73.6611 40.8213 73.9811 40.608L74.2691 41.584C73.8104 41.9467 73.2451 42.128 72.5731 42.128C71.4851 42.128 70.9411 41.4453 70.9411 40.08ZM81.2617 40.208L81.6617 41.216C80.9684 41.8453 80.067 42.16 78.9577 42.16C77.795 42.16 76.8617 41.8187 76.1577 41.136C75.4537 40.4533 75.1017 39.5413 75.1017 38.4C75.1017 37.312 75.4324 36.416 76.0937 35.712C76.755 34.9973 77.6617 34.64 78.8137 34.64C79.763 34.64 80.5577 34.9493 81.1977 35.568C81.8377 36.176 82.1577 36.9653 82.1577 37.936C82.1577 38.2667 82.131 38.5547 82.0777 38.8H76.5417C76.595 39.472 76.8457 40 77.2937 40.384C77.7524 40.768 78.339 40.96 79.0537 40.96C79.9924 40.96 80.7284 40.7093 81.2617 40.208ZM78.7497 35.84C78.1097 35.84 77.587 36.0213 77.1817 36.384C76.7764 36.736 76.5364 37.1947 76.4617 37.76H80.8297C80.7977 37.1627 80.595 36.6933 80.2217 36.352C79.859 36.0107 79.3684 35.84 78.7497 35.84ZM92.8799 39.136C92.8799 38.7627 92.7786 38.4373 92.5759 38.16C92.3733 37.8827 92.1119 37.6587 91.7919 37.488C91.4719 37.3067 91.1146 37.136 90.7199 36.976C90.3359 36.816 89.9466 36.6453 89.5519 36.464C89.1679 36.272 88.8159 36.0587 88.4959 35.824C88.1759 35.5893 87.9146 35.28 87.7119 34.896C87.5093 34.512 87.4079 34.0693 87.4079 33.568C87.4079 32.736 87.7119 32.0427 88.3199 31.488C88.9279 30.9227 89.7493 30.64 90.7839 30.64C91.4239 30.64 92.0159 30.7467 92.5599 30.96C93.1146 31.1733 93.5519 31.456 93.8719 31.808L93.1359 32.832C92.5279 32.224 91.7706 31.92 90.8639 31.92C90.2453 31.92 89.7546 32.0693 89.3919 32.368C89.0293 32.6667 88.8479 33.0667 88.8479 33.568C88.8479 33.9413 88.9493 34.2667 89.1519 34.544C89.3546 34.8213 89.6159 35.0453 89.9359 35.216C90.2559 35.3867 90.6079 35.552 90.9919 35.712C91.3866 35.8613 91.7759 36.0267 92.1599 36.208C92.5546 36.3893 92.9119 36.5973 93.2319 36.832C93.5519 37.056 93.8133 37.3653 94.0159 37.76C94.2186 38.1547 94.3199 38.608 94.3199 39.12C94.3199 40.0267 93.9679 40.7627 93.2639 41.328C92.5706 41.8827 91.7066 42.16 90.6719 42.16C89.9466 42.16 89.2426 42.0107 88.5599 41.712C87.8773 41.4027 87.4026 40.992 87.1359 40.48L87.9199 39.552C88.2399 39.968 88.6559 40.2933 89.1679 40.528C89.6799 40.7627 90.1866 40.88 90.6879 40.88C91.3066 40.88 91.8239 40.7253 92.2399 40.416C92.6666 40.1067 92.8799 39.68 92.8799 39.136ZM96.1092 39.264V32.8H97.3892V34.8H100.029V36H97.3892V39.136C97.3892 40.3307 97.8159 40.928 98.6692 40.928C99.0745 40.928 99.4532 40.7947 99.8052 40.528L100.205 41.52C99.7145 41.9253 99.1012 42.128 98.3652 42.128C97.5759 42.128 96.9999 41.888 96.6372 41.408C96.2852 40.928 96.1092 40.2133 96.1092 39.264ZM102.205 41.104C101.501 40.3893 101.149 39.488 101.149 38.4C101.149 37.312 101.501 36.416 102.205 35.712C102.919 34.9973 103.847 34.64 104.989 34.64C106.13 34.64 107.053 34.9973 107.757 35.712C108.471 36.416 108.829 37.312 108.829 38.4C108.829 39.488 108.471 40.3893 107.757 41.104C107.053 41.808 106.13 42.16 104.989 42.16C103.847 42.16 102.919 41.808 102.205 41.104ZM102.509 38.4C102.509 39.1467 102.738 39.76 103.197 40.24C103.666 40.72 104.263 40.96 104.989 40.96C105.714 40.96 106.306 40.7253 106.765 40.256C107.234 39.776 107.469 39.1573 107.469 38.4C107.469 37.6533 107.234 37.04 106.765 36.56C106.306 36.08 105.714 35.84 104.989 35.84C104.274 35.84 103.682 36.08 103.213 36.56C102.743 37.0293 102.509 37.6427 102.509 38.4ZM110.675 42V34.8H111.955V35.648C112.393 34.9973 112.995 34.672 113.763 34.672C114.265 34.672 114.638 34.7627 114.883 34.944L114.435 36.144C114.126 35.9627 113.801 35.872 113.459 35.872C112.809 35.872 112.307 36.2133 111.955 36.896V42H110.675ZM121.793 40.208L122.193 41.216C121.5 41.8453 120.598 42.16 119.489 42.16C118.326 42.16 117.393 41.8187 116.689 41.136C115.985 40.4533 115.633 39.5413 115.633 38.4C115.633 37.312 115.964 36.416 116.625 35.712C117.286 34.9973 118.193 34.64 119.345 34.64C120.294 34.64 121.089 34.9493 121.729 35.568C122.369 36.176 122.689 36.9653 122.689 37.936C122.689 38.2667 122.662 38.5547 122.609 38.8H117.073C117.126 39.472 117.377 40 117.825 40.384C118.284 40.768 118.87 40.96 119.585 40.96C120.524 40.96 121.26 40.7093 121.793 40.208ZM119.281 35.84C118.641 35.84 118.118 36.0213 117.713 36.384C117.308 36.736 117.068 37.1947 116.993 37.76H121.361C121.329 37.1627 121.126 36.6933 120.753 36.352C120.39 36.0107 119.9 35.84 119.281 35.84Z" fill="white"/>
</svg>
