<svg width="124" height="60" viewBox="0 0 124 60" fill="none" xmlns="http://www.w3.org/2000/svg">
<g clip-path="url(#clip0_702_126)">
<path d="M3.05085 45C1.39436 45 0.0514854 43.6571 0.0514854 42.0003V18.004C0.0432468 16.9635 0.578476 15.9941 1.46329 15.4462C2.34783 14.8986 3.45427 14.852 4.38192 15.3232L28.3879 27.3308C29.4037 27.8334 30.0463 28.8687 30.0463 30.0023C30.0463 31.1357 29.4037 32.171 28.3879 32.6738L4.38192 44.6812C3.96917 44.8893 3.51331 44.9983 3.05085 45ZM3.05085 16.5043C2.22261 16.5043 1.55117 17.1758 1.55117 18.004V42.0003C1.55117 43.0502 2.66667 43.8565 3.71653 43.3407L27.7222 31.3427C28.2311 31.0945 28.554 30.5776 28.554 30.0117C28.554 29.4454 28.2311 28.9288 27.7222 28.6806L3.70719 16.6636C3.5037 16.5606 3.27906 16.506 3.05085 16.5043Z" fill="white"/>
<path d="M3.51001 16.5269L4.57058 15.4663L23.2446 34.1406L22.1843 35.2009L3.51001 16.5269Z" fill="white"/>
<path d="M3.51929 43.4764L22.1908 24.8052L23.2511 25.8655L4.57958 44.537L3.51929 43.4764Z" fill="white"/>
</g>
<path d="M48.6464 24.152L49.1224 25.048C48.7957 25.384 48.3524 25.65 47.7924 25.846C47.2324 26.042 46.6444 26.14 46.0284 26.14C44.5537 26.14 43.3544 25.6827 42.4304 24.768C41.5157 23.844 41.0584 22.6213 41.0584 21.1C41.0584 19.6533 41.4971 18.454 42.3744 17.502C43.2611 16.5407 44.4511 16.06 45.9444 16.06C47.1951 16.06 48.1891 16.3773 48.9264 17.012L48.3804 17.908C47.7271 17.4227 46.9197 17.18 45.9584 17.18C44.8944 17.18 44.0217 17.544 43.3404 18.272C42.6591 19 42.3184 19.9427 42.3184 21.1C42.3184 22.2667 42.6684 23.214 43.3684 23.942C44.0777 24.6607 45.0017 25.02 46.1404 25.02C47.1017 25.02 47.9371 24.7307 48.6464 24.152ZM56.0699 19.7L53.3119 22.71L56.3359 26H54.7819L51.9399 22.78L54.5999 19.7H56.0699ZM50.5539 26V19.7H51.6739V26H50.5539ZM57.8626 21.03L57.5686 20.134C58.1846 19.7513 58.8846 19.56 59.6686 19.56C60.5366 19.56 61.1572 19.7747 61.5306 20.204C61.9039 20.6333 62.0906 21.2773 62.0906 22.136V26H61.0266V25.188C60.5412 25.7947 59.8692 26.098 59.0106 26.098C58.4319 26.098 57.9652 25.9253 57.6106 25.58C57.2559 25.2253 57.0786 24.7493 57.0786 24.152C57.0786 23.5267 57.2979 23.0367 57.7366 22.682C58.1846 22.3273 58.7586 22.15 59.4586 22.15C60.1306 22.15 60.6532 22.2853 61.0266 22.556C61.0266 21.884 60.9332 21.3847 60.7466 21.058C60.5599 20.7313 60.1772 20.568 59.5986 20.568C59.0292 20.568 58.4506 20.722 57.8626 21.03ZM59.4026 25.09C60.0279 25.09 60.5692 24.8193 61.0266 24.278V23.48C60.6346 23.2 60.1632 23.06 59.6126 23.06C59.2392 23.06 58.9219 23.1487 58.6606 23.326C58.3992 23.5033 58.2686 23.76 58.2686 24.096C58.2686 24.404 58.3666 24.6467 58.5626 24.824C58.7679 25.0013 59.0479 25.09 59.4026 25.09ZM68.698 19.7V26H67.578V23.55C67.0927 23.858 66.5093 24.012 65.828 24.012C64.3347 24.012 63.588 23.2093 63.588 21.604V19.7H64.778V21.478C64.778 22.4673 65.2307 22.962 66.136 22.962C66.724 22.962 67.2047 22.8313 67.578 22.57V19.7H68.698ZM71.0559 21.03L70.7619 20.134C71.3779 19.7513 72.0779 19.56 72.8619 19.56C73.7299 19.56 74.3506 19.7747 74.7239 20.204C75.0972 20.6333 75.2839 21.2773 75.2839 22.136V26H74.2199V25.188C73.7346 25.7947 73.0626 26.098 72.2039 26.098C71.6252 26.098 71.1586 25.9253 70.8039 25.58C70.4492 25.2253 70.2719 24.7493 70.2719 24.152C70.2719 23.5267 70.4912 23.0367 70.9299 22.682C71.3779 22.3273 71.9519 22.15 72.6519 22.15C73.3239 22.15 73.8466 22.2853 74.2199 22.556C74.2199 21.884 74.1266 21.3847 73.9399 21.058C73.7532 20.7313 73.3706 20.568 72.7919 20.568C72.2226 20.568 71.6439 20.722 71.0559 21.03ZM72.5959 25.09C73.2212 25.09 73.7626 24.8193 74.2199 24.278V23.48C73.8279 23.2 73.3566 23.06 72.8059 23.06C72.4326 23.06 72.1152 23.1487 71.8539 23.326C71.5926 23.5033 71.4619 23.76 71.4619 24.096C71.4619 24.404 71.5599 24.6467 71.7559 24.824C71.9612 25.0013 72.2412 25.09 72.5959 25.09ZM76.3614 20.82V19.7H82.1014V20.82H79.7914V26H78.6714V20.82H76.3614ZM83.3254 26V19.7H84.4454V21.59H85.5934C86.4894 21.59 87.1287 21.7953 87.5114 22.206C87.894 22.6073 88.0854 23.1253 88.0854 23.76C88.0854 24.3947 87.8754 24.9267 87.4554 25.356C87.0354 25.7853 86.368 26 85.4534 26H83.3254ZM85.3834 22.64H84.4454V24.95H85.3694C86.3867 24.95 86.8954 24.5673 86.8954 23.802C86.8954 23.0273 86.3914 22.64 85.3834 22.64ZM92.7316 26V19.7C92.881 19.7 93.2123 19.6907 93.7256 19.672C94.2483 19.6533 94.6776 19.644 95.0136 19.644C96.8243 19.644 97.7296 20.1853 97.7296 21.268C97.7296 21.6413 97.613 21.9633 97.3796 22.234C97.1463 22.4953 96.843 22.654 96.4696 22.71V22.738C97.4496 22.9153 97.9396 23.41 97.9396 24.222C97.9396 25.4447 96.9736 26.056 95.0416 26.056C94.7616 26.056 94.351 26.0467 93.8096 26.028C93.2683 26.0093 92.909 26 92.7316 26ZM95.1956 23.172H93.8516V25.104C94.5236 25.132 94.953 25.146 95.1396 25.146C96.213 25.146 96.7496 24.81 96.7496 24.138C96.7496 23.494 96.2316 23.172 95.1956 23.172ZM95.0976 20.554C94.827 20.554 94.4116 20.568 93.8516 20.596V22.472H95.2656C95.6483 22.472 95.9563 22.3833 96.1896 22.206C96.423 22.0287 96.5396 21.7907 96.5396 21.492C96.5396 20.8667 96.059 20.554 95.0976 20.554Z" fill="white"/>
<path d="M46.5789 37.584V36.304H50.8829V40.608C50.4029 41.088 49.7683 41.4667 48.9789 41.744C48.1896 42.0213 47.4269 42.16 46.6909 42.16C44.9523 42.16 43.5709 41.6373 42.5469 40.592C41.5229 39.5467 41.0109 38.1493 41.0109 36.4C41.0109 34.7573 41.5176 33.3867 42.5309 32.288C43.5443 31.1893 44.8723 30.64 46.5149 30.64C47.9443 30.64 49.1176 31.0027 50.0349 31.728L49.4429 32.816C48.7816 32.2187 47.8589 31.92 46.6749 31.92C45.4163 31.92 44.3976 32.3307 43.6189 33.152C42.8403 33.9733 42.4509 35.056 42.4509 36.4C42.4509 37.7547 42.8403 38.8427 43.6189 39.664C44.4083 40.4747 45.4429 40.88 46.7229 40.88C47.2563 40.88 47.7949 40.7893 48.3389 40.608C48.8829 40.416 49.3043 40.176 49.6029 39.888V37.584H46.5789ZM53.5639 41.104C52.8599 40.3893 52.5079 39.488 52.5079 38.4C52.5079 37.312 52.8599 36.416 53.5639 35.712C54.2786 34.9973 55.2066 34.64 56.3479 34.64C57.4893 34.64 58.4119 34.9973 59.1159 35.712C59.8306 36.416 60.1879 37.312 60.1879 38.4C60.1879 39.488 59.8306 40.3893 59.1159 41.104C58.4119 41.808 57.4893 42.16 56.3479 42.16C55.2066 42.16 54.2786 41.808 53.5639 41.104ZM53.8679 38.4C53.8679 39.1467 54.0973 39.76 54.5559 40.24C55.0253 40.72 55.6226 40.96 56.3479 40.96C57.0733 40.96 57.6653 40.7253 58.1239 40.256C58.5933 39.776 58.8279 39.1573 58.8279 38.4C58.8279 37.6533 58.5933 37.04 58.1239 36.56C57.6653 36.08 57.0733 35.84 56.3479 35.84C55.6333 35.84 55.0413 36.08 54.5719 36.56C54.1026 37.0293 53.8679 37.6427 53.8679 38.4ZM62.6108 41.104C61.9068 40.3893 61.5548 39.488 61.5548 38.4C61.5548 37.312 61.9068 36.416 62.6108 35.712C63.3255 34.9973 64.2535 34.64 65.3948 34.64C66.5361 34.64 67.4588 34.9973 68.1628 35.712C68.8775 36.416 69.2348 37.312 69.2348 38.4C69.2348 39.488 68.8775 40.3893 68.1628 41.104C67.4588 41.808 66.5361 42.16 65.3948 42.16C64.2535 42.16 63.3255 41.808 62.6108 41.104ZM62.9148 38.4C62.9148 39.1467 63.1441 39.76 63.6028 40.24C64.0721 40.72 64.6695 40.96 65.3948 40.96C66.1201 40.96 66.7121 40.7253 67.1708 40.256C67.6401 39.776 67.8748 39.1573 67.8748 38.4C67.8748 37.6533 67.6401 37.04 67.1708 36.56C66.7121 36.08 66.1201 35.84 65.3948 35.84C64.6801 35.84 64.0881 36.08 63.6188 36.56C63.1495 37.0293 62.9148 37.6427 62.9148 38.4ZM70.0897 43.04C70.0897 42.4747 70.2924 42.0053 70.6977 41.632C71.1137 41.2587 71.679 40.9973 72.3937 40.848C72.2764 40.6987 72.2177 40.5013 72.2177 40.256C72.2177 40.0107 72.2817 39.808 72.4097 39.648C71.8977 39.4453 71.4977 39.136 71.2097 38.72C70.9324 38.2933 70.7937 37.8133 70.7937 37.28C70.7937 36.5333 71.0604 35.9093 71.5937 35.408C72.1377 34.896 72.8524 34.64 73.7377 34.64C74.431 34.64 75.039 34.816 75.5617 35.168L77.6737 34.656L77.7057 35.696L76.3457 36.032C76.5697 36.3947 76.6817 36.8107 76.6817 37.28C76.6817 38.016 76.4097 38.6347 75.8657 39.136C75.3217 39.6267 74.6124 39.872 73.7377 39.872C73.5244 39.872 73.3644 39.8667 73.2577 39.856C73.2044 39.9627 73.1777 40.096 73.1777 40.256C73.1777 40.448 73.2257 40.608 73.3217 40.736C73.3644 40.736 73.4337 40.736 73.5297 40.736C73.6257 40.7253 73.7004 40.72 73.7537 40.72C74.8524 40.72 75.7377 40.9173 76.4097 41.312C77.0817 41.7067 77.4177 42.2827 77.4177 43.04C77.4177 43.7867 77.0817 44.352 76.4097 44.736C75.7377 45.1307 74.8524 45.328 73.7537 45.328C72.655 45.328 71.7697 45.136 71.0977 44.752C70.4257 44.368 70.0897 43.7973 70.0897 43.04ZM71.9457 42.096C71.5084 42.3307 71.2897 42.6453 71.2897 43.04C71.2897 43.4347 71.5084 43.7387 71.9457 43.952C72.3937 44.176 72.9964 44.288 73.7537 44.288C74.511 44.288 75.1084 44.1813 75.5457 43.968C75.9937 43.7547 76.2177 43.4453 76.2177 43.04C76.2177 42.6453 75.999 42.3307 75.5617 42.096C75.1244 41.872 74.5217 41.76 73.7537 41.76C72.9857 41.76 72.383 41.872 71.9457 42.096ZM71.9937 37.28C71.9937 37.728 72.1537 38.1013 72.4737 38.4C72.7937 38.688 73.215 38.832 73.7377 38.832C74.2497 38.832 74.6657 38.688 74.9857 38.4C75.3164 38.112 75.4817 37.7387 75.4817 37.28C75.4817 36.8213 75.3217 36.4427 75.0017 36.144C74.6817 35.8347 74.2604 35.68 73.7377 35.68C73.215 35.68 72.7937 35.8347 72.4737 36.144C72.1537 36.4427 71.9937 36.8213 71.9937 37.28ZM78.9879 40.08V30.8H80.2679V39.504C80.2679 39.9947 80.3319 40.3573 80.4599 40.592C80.5986 40.816 80.8173 40.928 81.1159 40.928C81.4039 40.928 81.7079 40.8213 82.0279 40.608L82.3159 41.584C81.8573 41.9467 81.2919 42.128 80.6199 42.128C79.5319 42.128 78.9879 41.4453 78.9879 40.08ZM89.3086 40.208L89.7086 41.216C89.0152 41.8453 88.1139 42.16 87.0046 42.16C85.8419 42.16 84.9086 41.8187 84.2046 41.136C83.5006 40.4533 83.1486 39.5413 83.1486 38.4C83.1486 37.312 83.4792 36.416 84.1406 35.712C84.8019 34.9973 85.7086 34.64 86.8606 34.64C87.8099 34.64 88.6046 34.9493 89.2446 35.568C89.8846 36.176 90.2046 36.9653 90.2046 37.936C90.2046 38.2667 90.1779 38.5547 90.1246 38.8H84.5886C84.6419 39.472 84.8926 40 85.3406 40.384C85.7992 40.768 86.3859 40.96 87.1006 40.96C88.0392 40.96 88.7752 40.7093 89.3086 40.208ZM86.7966 35.84C86.1566 35.84 85.6339 36.0213 85.2286 36.384C84.8232 36.736 84.5832 37.1947 84.5086 37.76H88.8766C88.8446 37.1627 88.6419 36.6933 88.2686 36.352C87.9059 36.0107 87.4152 35.84 86.7966 35.84ZM97.4228 42H96.0628V30.8C96.2655 30.8 96.7401 30.7947 97.4868 30.784C98.2441 30.7733 98.7455 30.768 98.9908 30.768C100.463 30.768 101.519 31.0987 102.159 31.76C102.809 32.4107 103.135 33.2373 103.135 34.24C103.135 35.2213 102.783 36.0533 102.079 36.736C101.385 37.4187 100.393 37.76 99.1028 37.76C98.4841 37.76 97.9241 37.7387 97.4228 37.696V42ZM99.1188 32.048C98.6921 32.048 98.1268 32.0587 97.4228 32.08V36.4C98.0308 36.4533 98.5748 36.48 99.0548 36.48C99.8761 36.48 100.521 36.2827 100.991 35.888C101.46 35.4827 101.695 34.928 101.695 34.224C101.695 33.5413 101.481 33.008 101.055 32.624C100.628 32.24 99.9828 32.048 99.1188 32.048ZM105.082 40.08V30.8H106.362V39.504C106.362 39.9947 106.426 40.3573 106.554 40.592C106.692 40.816 106.911 40.928 107.21 40.928C107.498 40.928 107.802 40.8213 108.122 40.608L108.41 41.584C107.951 41.9467 107.386 42.128 106.714 42.128C105.626 42.128 105.082 41.4453 105.082 40.08ZM110.106 36.32L109.77 35.296C110.474 34.8587 111.274 34.64 112.17 34.64C113.162 34.64 113.872 34.8853 114.298 35.376C114.725 35.8667 114.938 36.6027 114.938 37.584V42H113.722V41.072C113.168 41.7653 112.4 42.112 111.418 42.112C110.757 42.112 110.224 41.9147 109.818 41.52C109.413 41.1147 109.21 40.5707 109.21 39.888C109.21 39.1733 109.461 38.6133 109.962 38.208C110.474 37.8027 111.13 37.6 111.93 37.6C112.698 37.6 113.296 37.7547 113.722 38.064C113.722 37.296 113.616 36.7253 113.402 36.352C113.189 35.9787 112.752 35.792 112.09 35.792C111.44 35.792 110.778 35.968 110.106 36.32ZM111.866 40.96C112.581 40.96 113.2 40.6507 113.722 40.032V39.12C113.274 38.8 112.736 38.64 112.106 38.64C111.68 38.64 111.317 38.7413 111.018 38.944C110.72 39.1467 110.57 39.44 110.57 39.824C110.57 40.176 110.682 40.4533 110.906 40.656C111.141 40.8587 111.461 40.96 111.866 40.96ZM123.626 34.8L120.746 42C120.234 43.248 119.78 44.0907 119.386 44.528C118.991 44.976 118.527 45.2 117.994 45.2C117.535 45.2 117.082 45.0507 116.634 44.752L117.05 43.776C117.391 43.936 117.658 44.016 117.85 44.016C118.148 44.016 118.415 43.888 118.65 43.632C118.895 43.376 119.14 42.96 119.386 42.384L119.546 42L116.09 34.8H117.626L119.738 39.376C119.78 39.472 119.924 39.8347 120.17 40.464C120.266 40.112 120.378 39.744 120.506 39.36L122.17 34.8H123.626Z" fill="white"/>
<defs>
<clipPath id="clip0_702_126">
<rect width="30" height="30" fill="white" transform="translate(0 15)"/>
</clipPath>
</defs>
</svg>
