<svg width="25" height="30" viewBox="0 0 25 30" fill="none" xmlns="http://www.w3.org/2000/svg">
<path d="M18.5264 8.25536L18.5637 8.25925L18.6011 8.26035C19.3375 8.28195 21.2218 8.5226 22.6926 10.0458C21.5737 10.9888 19.8557 12.9312 19.8849 15.9631C19.9076 18.5587 21.0544 20.3149 22.2024 21.4067C22.729 21.9075 23.2569 22.2706 23.6811 22.5194C23.3997 23.2572 22.8624 24.4701 21.9956 25.697L21.9879 25.7079L21.9804 25.719C21.3587 26.6508 20.787 27.4673 20.1509 28.0618C19.5352 28.6372 18.926 28.9411 18.2243 28.9528L18.2181 28.9529C17.4592 28.9703 16.9715 28.763 16.2687 28.4644L16.2671 28.4637C15.536 28.1531 14.6434 27.7814 13.2915 27.7814C11.9438 27.7814 11.0453 28.1234 10.2935 28.437C10.248 28.456 10.2034 28.4747 10.1597 28.493C9.49789 28.7702 9.02211 28.9694 8.32249 28.9989C7.73103 29.0208 7.12028 28.7308 6.4328 28.0852C5.74419 27.4385 5.10841 26.5586 4.46197 25.6364C3.26676 23.8886 2.18865 21.3971 1.73134 18.803C1.27232 16.1993 1.45825 13.6155 2.62984 11.584L2.62984 11.584L2.63195 11.5804C3.75951 9.60589 5.80096 8.35988 7.94274 8.32604L7.94274 8.32605L7.94732 8.32596C8.70467 8.31053 9.48165 8.56806 10.3269 8.90219C10.4261 8.9414 10.5286 8.98261 10.6328 9.02452C10.9421 9.14887 11.2666 9.27933 11.5648 9.38174C11.9632 9.51856 12.4291 9.64811 12.8991 9.64811C13.3839 9.64811 13.8896 9.48841 14.3062 9.33777C14.5339 9.25545 14.8164 9.14343 15.0961 9.03258C15.3048 8.94985 15.5118 8.86776 15.6932 8.79915C16.6681 8.43038 17.6187 8.16046 18.5264 8.25536Z" stroke="white" stroke-width="2"/>
<path d="M14.9986 2.93502L14.9989 2.93463C15.6602 2.1593 16.6867 1.52047 17.6504 1.2063C17.5128 2.28172 17.0222 3.32736 16.3485 4.17468C15.64 5.00634 14.6487 5.63609 13.662 5.84912C13.802 4.77954 14.3544 3.68951 14.9986 2.93502Z" stroke="white" stroke-width="2"/>
</svg>
