<svg width="84" height="31" viewBox="0 0 84 31" fill="none" xmlns="http://www.w3.org/2000/svg">
<path d="M8.6464 9.152L9.1224 10.048C8.79573 10.384 8.3524 10.65 7.7924 10.846C7.2324 11.042 6.6444 11.14 6.0284 11.14C4.55373 11.14 3.3544 10.6827 2.4304 9.768C1.51573 8.844 1.0584 7.62133 1.0584 6.1C1.0584 4.65333 1.49707 3.454 2.3744 2.502C3.26107 1.54067 4.45107 1.06 5.9444 1.06C7.19507 1.06 8.18907 1.37733 8.9264 2.012L8.3804 2.908C7.72707 2.42267 6.91973 2.18 5.9584 2.18C4.8944 2.18 4.02173 2.544 3.3404 3.272C2.65907 4 2.3184 4.94267 2.3184 6.1C2.3184 7.26667 2.6684 8.214 3.3684 8.942C4.07773 9.66067 5.00173 10.02 6.1404 10.02C7.10173 10.02 7.93707 9.73067 8.6464 9.152ZM16.0699 4.7L13.3119 7.71L16.3359 11H14.7819L11.9399 7.78L14.5999 4.7H16.0699ZM10.5539 11V4.7H11.6739V11H10.5539ZM17.8626 6.03L17.5686 5.134C18.1846 4.75133 18.8846 4.56 19.6686 4.56C20.5366 4.56 21.1572 4.77467 21.5306 5.204C21.9039 5.63333 22.0906 6.27733 22.0906 7.136V11H21.0266V10.188C20.5412 10.7947 19.8692 11.098 19.0106 11.098C18.4319 11.098 17.9652 10.9253 17.6106 10.58C17.2559 10.2253 17.0786 9.74933 17.0786 9.152C17.0786 8.52667 17.2979 8.03667 17.7366 7.682C18.1846 7.32733 18.7586 7.15 19.4586 7.15C20.1306 7.15 20.6532 7.28533 21.0266 7.556C21.0266 6.884 20.9332 6.38467 20.7466 6.058C20.5599 5.73133 20.1772 5.568 19.5986 5.568C19.0292 5.568 18.4506 5.722 17.8626 6.03ZM19.4026 10.09C20.0279 10.09 20.5692 9.81933 21.0266 9.278V8.48C20.6346 8.2 20.1632 8.06 19.6126 8.06C19.2392 8.06 18.9219 8.14867 18.6606 8.326C18.3992 8.50333 18.2686 8.76 18.2686 9.096C18.2686 9.404 18.3666 9.64667 18.5626 9.824C18.7679 10.0013 19.0479 10.09 19.4026 10.09ZM28.698 4.7V11H27.578V8.55C27.0927 8.858 26.5093 9.012 25.828 9.012C24.3347 9.012 23.588 8.20933 23.588 6.604V4.7H24.778V6.478C24.778 7.46733 25.2307 7.962 26.136 7.962C26.724 7.962 27.2047 7.83133 27.578 7.57V4.7H28.698ZM31.0559 6.03L30.7619 5.134C31.3779 4.75133 32.0779 4.56 32.8619 4.56C33.7299 4.56 34.3506 4.77467 34.7239 5.204C35.0972 5.63333 35.2839 6.27733 35.2839 7.136V11H34.2199V10.188C33.7346 10.7947 33.0626 11.098 32.2039 11.098C31.6252 11.098 31.1586 10.9253 30.8039 10.58C30.4492 10.2253 30.2719 9.74933 30.2719 9.152C30.2719 8.52667 30.4912 8.03667 30.9299 7.682C31.3779 7.32733 31.9519 7.15 32.6519 7.15C33.3239 7.15 33.8466 7.28533 34.2199 7.556C34.2199 6.884 34.1266 6.38467 33.9399 6.058C33.7532 5.73133 33.3706 5.568 32.7919 5.568C32.2226 5.568 31.6439 5.722 31.0559 6.03ZM32.5959 10.09C33.2212 10.09 33.7626 9.81933 34.2199 9.278V8.48C33.8279 8.2 33.3566 8.06 32.8059 8.06C32.4326 8.06 32.1152 8.14867 31.8539 8.326C31.5926 8.50333 31.4619 8.76 31.4619 9.096C31.4619 9.404 31.5599 9.64667 31.7559 9.824C31.9612 10.0013 32.2412 10.09 32.5959 10.09ZM36.3614 5.82V4.7H42.1014V5.82H39.7914V11H38.6714V5.82H36.3614ZM43.3254 11V4.7H44.4454V6.59H45.5934C46.4894 6.59 47.1287 6.79533 47.5114 7.206C47.894 7.60733 48.0854 8.12533 48.0854 8.76C48.0854 9.39467 47.8754 9.92667 47.4554 10.356C47.0354 10.7853 46.368 11 45.4534 11H43.3254ZM45.3834 7.64H44.4454V9.95H45.3694C46.3867 9.95 46.8954 9.56733 46.8954 8.802C46.8954 8.02733 46.3914 7.64 45.3834 7.64ZM52.7316 11V4.7C52.881 4.7 53.2123 4.69067 53.7256 4.672C54.2483 4.65333 54.6776 4.644 55.0136 4.644C56.8243 4.644 57.7296 5.18533 57.7296 6.268C57.7296 6.64133 57.613 6.96333 57.3796 7.234C57.1463 7.49533 56.843 7.654 56.4696 7.71V7.738C57.4496 7.91533 57.9396 8.41 57.9396 9.222C57.9396 10.4447 56.9736 11.056 55.0416 11.056C54.7616 11.056 54.351 11.0467 53.8096 11.028C53.2683 11.0093 52.909 11 52.7316 11ZM55.1956 8.172H53.8516V10.104C54.5236 10.132 54.953 10.146 55.1396 10.146C56.213 10.146 56.7496 9.81 56.7496 9.138C56.7496 8.494 56.2316 8.172 55.1956 8.172ZM55.0976 5.554C54.827 5.554 54.4116 5.568 53.8516 5.596V7.472H55.2656C55.6483 7.472 55.9563 7.38333 56.1896 7.206C56.423 7.02867 56.5396 6.79067 56.5396 6.492C56.5396 5.86667 56.059 5.554 55.0976 5.554Z" fill="white"/>
<path d="M6.57894 22.584V21.304H10.8829V25.608C10.4029 26.088 9.76827 26.4667 8.97894 26.744C8.1896 27.0213 7.42694 27.16 6.69094 27.16C4.95227 27.16 3.57094 26.6373 2.54694 25.592C1.52294 24.5467 1.01094 23.1493 1.01094 21.4C1.01094 19.7573 1.5176 18.3867 2.53094 17.288C3.54427 16.1893 4.87227 15.64 6.51494 15.64C7.94427 15.64 9.1176 16.0027 10.0349 16.728L9.44294 17.816C8.7816 17.2187 7.85894 16.92 6.67494 16.92C5.41627 16.92 4.3976 17.3307 3.61894 18.152C2.84027 18.9733 2.45094 20.056 2.45094 21.4C2.45094 22.7547 2.84027 23.8427 3.61894 24.664C4.40827 25.4747 5.44294 25.88 6.72294 25.88C7.25627 25.88 7.79494 25.7893 8.33894 25.608C8.88294 25.416 9.30427 25.176 9.60294 24.888V22.584H6.57894ZM13.5639 26.104C12.8599 25.3893 12.5079 24.488 12.5079 23.4C12.5079 22.312 12.8599 21.416 13.5639 20.712C14.2786 19.9973 15.2066 19.64 16.3479 19.64C17.4893 19.64 18.4119 19.9973 19.1159 20.712C19.8306 21.416 20.1879 22.312 20.1879 23.4C20.1879 24.488 19.8306 25.3893 19.1159 26.104C18.4119 26.808 17.4893 27.16 16.3479 27.16C15.2066 27.16 14.2786 26.808 13.5639 26.104ZM13.8679 23.4C13.8679 24.1467 14.0973 24.76 14.5559 25.24C15.0253 25.72 15.6226 25.96 16.3479 25.96C17.0733 25.96 17.6653 25.7253 18.1239 25.256C18.5933 24.776 18.8279 24.1573 18.8279 23.4C18.8279 22.6533 18.5933 22.04 18.1239 21.56C17.6653 21.08 17.0733 20.84 16.3479 20.84C15.6333 20.84 15.0413 21.08 14.5719 21.56C14.1026 22.0293 13.8679 22.6427 13.8679 23.4ZM22.6108 26.104C21.9068 25.3893 21.5548 24.488 21.5548 23.4C21.5548 22.312 21.9068 21.416 22.6108 20.712C23.3255 19.9973 24.2535 19.64 25.3948 19.64C26.5361 19.64 27.4588 19.9973 28.1628 20.712C28.8775 21.416 29.2348 22.312 29.2348 23.4C29.2348 24.488 28.8775 25.3893 28.1628 26.104C27.4588 26.808 26.5361 27.16 25.3948 27.16C24.2535 27.16 23.3255 26.808 22.6108 26.104ZM22.9148 23.4C22.9148 24.1467 23.1441 24.76 23.6028 25.24C24.0721 25.72 24.6695 25.96 25.3948 25.96C26.1201 25.96 26.7121 25.7253 27.1708 25.256C27.6401 24.776 27.8748 24.1573 27.8748 23.4C27.8748 22.6533 27.6401 22.04 27.1708 21.56C26.7121 21.08 26.1201 20.84 25.3948 20.84C24.6801 20.84 24.0881 21.08 23.6188 21.56C23.1495 22.0293 22.9148 22.6427 22.9148 23.4ZM30.0897 28.04C30.0897 27.4747 30.2924 27.0053 30.6977 26.632C31.1137 26.2587 31.679 25.9973 32.3937 25.848C32.2764 25.6987 32.2177 25.5013 32.2177 25.256C32.2177 25.0107 32.2817 24.808 32.4097 24.648C31.8977 24.4453 31.4977 24.136 31.2097 23.72C30.9324 23.2933 30.7937 22.8133 30.7937 22.28C30.7937 21.5333 31.0604 20.9093 31.5937 20.408C32.1377 19.896 32.8524 19.64 33.7377 19.64C34.431 19.64 35.039 19.816 35.5617 20.168L37.6737 19.656L37.7057 20.696L36.3457 21.032C36.5697 21.3947 36.6817 21.8107 36.6817 22.28C36.6817 23.016 36.4097 23.6347 35.8657 24.136C35.3217 24.6267 34.6124 24.872 33.7377 24.872C33.5244 24.872 33.3644 24.8667 33.2577 24.856C33.2044 24.9627 33.1777 25.096 33.1777 25.256C33.1777 25.448 33.2257 25.608 33.3217 25.736C33.3644 25.736 33.4337 25.736 33.5297 25.736C33.6257 25.7253 33.7004 25.72 33.7537 25.72C34.8524 25.72 35.7377 25.9173 36.4097 26.312C37.0817 26.7067 37.4177 27.2827 37.4177 28.04C37.4177 28.7867 37.0817 29.352 36.4097 29.736C35.7377 30.1307 34.8524 30.328 33.7537 30.328C32.655 30.328 31.7697 30.136 31.0977 29.752C30.4257 29.368 30.0897 28.7973 30.0897 28.04ZM31.9457 27.096C31.5084 27.3307 31.2897 27.6453 31.2897 28.04C31.2897 28.4347 31.5084 28.7387 31.9457 28.952C32.3937 29.176 32.9964 29.288 33.7537 29.288C34.511 29.288 35.1084 29.1813 35.5457 28.968C35.9937 28.7547 36.2177 28.4453 36.2177 28.04C36.2177 27.6453 35.999 27.3307 35.5617 27.096C35.1244 26.872 34.5217 26.76 33.7537 26.76C32.9857 26.76 32.383 26.872 31.9457 27.096ZM31.9937 22.28C31.9937 22.728 32.1537 23.1013 32.4737 23.4C32.7937 23.688 33.215 23.832 33.7377 23.832C34.2497 23.832 34.6657 23.688 34.9857 23.4C35.3164 23.112 35.4817 22.7387 35.4817 22.28C35.4817 21.8213 35.3217 21.4427 35.0017 21.144C34.6817 20.8347 34.2604 20.68 33.7377 20.68C33.215 20.68 32.7937 20.8347 32.4737 21.144C32.1537 21.4427 31.9937 21.8213 31.9937 22.28ZM38.9879 25.08V15.8H40.2679V24.504C40.2679 24.9947 40.3319 25.3573 40.4599 25.592C40.5986 25.816 40.8173 25.928 41.1159 25.928C41.4039 25.928 41.7079 25.8213 42.0279 25.608L42.3159 26.584C41.8573 26.9467 41.2919 27.128 40.6199 27.128C39.5319 27.128 38.9879 26.4453 38.9879 25.08ZM49.3086 25.208L49.7086 26.216C49.0152 26.8453 48.1139 27.16 47.0046 27.16C45.8419 27.16 44.9086 26.8187 44.2046 26.136C43.5006 25.4533 43.1486 24.5413 43.1486 23.4C43.1486 22.312 43.4792 21.416 44.1406 20.712C44.8019 19.9973 45.7086 19.64 46.8606 19.64C47.8099 19.64 48.6046 19.9493 49.2446 20.568C49.8846 21.176 50.2046 21.9653 50.2046 22.936C50.2046 23.2667 50.1779 23.5547 50.1246 23.8H44.5886C44.6419 24.472 44.8926 25 45.3406 25.384C45.7992 25.768 46.3859 25.96 47.1006 25.96C48.0392 25.96 48.7752 25.7093 49.3086 25.208ZM46.7966 20.84C46.1566 20.84 45.6339 21.0213 45.2286 21.384C44.8232 21.736 44.5832 22.1947 44.5086 22.76H48.8766C48.8446 22.1627 48.6419 21.6933 48.2686 21.352C47.9059 21.0107 47.4152 20.84 46.7966 20.84ZM57.4228 27H56.0628V15.8C56.2655 15.8 56.7401 15.7947 57.4868 15.784C58.2441 15.7733 58.7455 15.768 58.9908 15.768C60.4628 15.768 61.5188 16.0987 62.1588 16.76C62.8095 17.4107 63.1348 18.2373 63.1348 19.24C63.1348 20.2213 62.7828 21.0533 62.0788 21.736C61.3855 22.4187 60.3935 22.76 59.1028 22.76C58.4841 22.76 57.9241 22.7387 57.4228 22.696V27ZM59.1188 17.048C58.6921 17.048 58.1268 17.0587 57.4228 17.08V21.4C58.0308 21.4533 58.5748 21.48 59.0548 21.48C59.8761 21.48 60.5215 21.2827 60.9908 20.888C61.4601 20.4827 61.6948 19.928 61.6948 19.224C61.6948 18.5413 61.4815 18.008 61.0548 17.624C60.6281 17.24 59.9828 17.048 59.1188 17.048ZM65.0817 25.08V15.8H66.3617V24.504C66.3617 24.9947 66.4257 25.3573 66.5537 25.592C66.6924 25.816 66.911 25.928 67.2097 25.928C67.4977 25.928 67.8017 25.8213 68.1217 25.608L68.4097 26.584C67.951 26.9467 67.3857 27.128 66.7137 27.128C65.6257 27.128 65.0817 26.4453 65.0817 25.08ZM70.1063 21.32L69.7703 20.296C70.4743 19.8587 71.2743 19.64 72.1703 19.64C73.1623 19.64 73.8716 19.8853 74.2983 20.376C74.725 20.8667 74.9383 21.6027 74.9383 22.584V27H73.7223V26.072C73.1676 26.7653 72.3996 27.112 71.4183 27.112C70.757 27.112 70.2236 26.9147 69.8183 26.52C69.413 26.1147 69.2103 25.5707 69.2103 24.888C69.2103 24.1733 69.461 23.6133 69.9623 23.208C70.4743 22.8027 71.1303 22.6 71.9303 22.6C72.6983 22.6 73.2956 22.7547 73.7223 23.064C73.7223 22.296 73.6156 21.7253 73.4023 21.352C73.189 20.9787 72.7516 20.792 72.0903 20.792C71.4396 20.792 70.7783 20.968 70.1063 21.32ZM71.8663 25.96C72.581 25.96 73.1996 25.6507 73.7223 25.032V24.12C73.2743 23.8 72.7356 23.64 72.1063 23.64C71.6796 23.64 71.317 23.7413 71.0183 23.944C70.7196 24.1467 70.5703 24.44 70.5703 24.824C70.5703 25.176 70.6823 25.4533 70.9063 25.656C71.141 25.8587 71.461 25.96 71.8663 25.96ZM83.6257 19.8L80.7457 27C80.2337 28.248 79.7804 29.0907 79.3857 29.528C78.991 29.976 78.527 30.2 77.9937 30.2C77.535 30.2 77.0817 30.0507 76.6337 29.752L77.0497 28.776C77.391 28.936 77.6577 29.016 77.8497 29.016C78.1484 29.016 78.415 28.888 78.6497 28.632C78.895 28.376 79.1404 27.96 79.3857 27.384L79.5457 27L76.0897 19.8H77.6257L79.7377 24.376C79.7804 24.472 79.9244 24.8347 80.1697 25.464C80.2657 25.112 80.3777 24.744 80.5057 24.36L82.1697 19.8H83.6257Z" fill="white"/>
</svg>
