<svg width="40" height="40" viewBox="0 0 40 40" fill="none" xmlns="http://www.w3.org/2000/svg">
<circle cx="20" cy="20" r="20" fill="#0B972A"/>
<path d="M28.426 12.6203C27.3324 11.5273 26.0317 10.6636 24.6001 10.0796C23.1685 9.49555 21.6348 9.20304 20.0887 9.21914C18.5424 9.20743 17.009 9.50189 15.577 10.0855C14.145 10.6692 12.8426 11.5305 11.745 12.6198C10.6474 13.7091 9.77628 15.0049 9.1818 16.4325C8.58731 17.86 8.28125 19.3911 8.28125 20.9375V27.5C8.28193 28.1214 8.52908 28.7172 8.96847 29.1566C9.40786 29.596 10.0036 29.8431 10.625 29.8438H12.5C13.1214 29.8431 13.7171 29.596 14.1565 29.1566C14.5959 28.7172 14.8431 28.1214 14.8437 27.5V22.8125C14.8431 22.1911 14.5959 21.5954 14.1565 21.156C13.7171 20.7166 13.1214 20.4695 12.5 20.4688H9.22871C9.35031 17.6779 10.5504 15.0431 12.5762 13.1195C14.602 11.196 17.2953 10.1337 20.0887 10.1566C22.881 10.1355 25.5726 11.1985 27.5968 13.1219C29.6211 15.0453 30.8203 17.6791 30.9418 20.4688H27.6705C27.0491 20.4695 26.4534 20.7166 26.014 21.156C25.5746 21.5954 25.3274 22.1911 25.3268 22.8125V27.5C25.3274 28.1214 25.5746 28.7172 26.014 29.1566C26.4534 29.596 27.0491 29.8431 27.6705 29.8438H29.5455C30.1669 29.8431 30.7626 29.596 31.202 29.1566C31.6414 28.7172 31.8886 28.1214 31.8893 27.5V20.9375C31.8937 19.3906 31.5897 17.8583 30.995 16.4302C30.4004 15.0021 29.527 13.7069 28.4259 12.6203H28.426ZM12.5 21.4063C12.8728 21.4067 13.2303 21.555 13.4939 21.8186C13.7576 22.0822 13.9058 22.4397 13.9062 22.8125V27.5C13.9058 27.8729 13.7576 28.2303 13.4939 28.494C13.2303 28.7576 12.8728 28.9059 12.5 28.9063H10.625C10.2522 28.9059 9.89471 28.7576 9.63108 28.494C9.36744 28.2303 9.21915 27.8729 9.21875 27.5V21.4063H12.5ZM30.9519 27.5C30.9515 27.8729 30.8032 28.2303 30.5395 28.494C30.2759 28.7576 29.9185 28.9059 29.5456 28.9063H27.6706C27.2978 28.9059 26.9403 28.7576 26.6767 28.494C26.4131 28.2303 26.2648 27.8729 26.2644 27.5V22.8125C26.2648 22.4397 26.4131 22.0822 26.6767 21.8186C26.9403 21.555 27.2978 21.4067 27.6706 21.4063H30.9519V27.5Z" fill="white"/>
</svg>
