<svg width="30" height="30" viewBox="0 0 30 30" fill="none" xmlns="http://www.w3.org/2000/svg">
<g clip-path="url(#clip0_688_127)">
<path d="M3.05085 30C1.39436 30 0.0514854 28.6571 0.0514854 27.0003V3.00401C0.0432468 1.96349 0.578476 0.994086 1.46329 0.446225C2.34783 -0.101362 3.45427 -0.148047 4.38192 0.323196L28.3879 12.3308C29.4037 12.8334 30.0463 13.8687 30.0463 15.0023C30.0463 16.1357 29.4037 17.171 28.3879 17.6738L4.38192 29.6812C3.96917 29.8893 3.51331 29.9983 3.05085 30ZM3.05085 1.50433C2.22261 1.50433 1.55117 2.17576 1.55117 3.00401V27.0003C1.55117 28.0502 2.66667 28.8565 3.71653 28.3407L27.7222 16.3427C28.2311 16.0945 28.554 15.5776 28.554 15.0117C28.554 14.4454 28.2311 13.9288 27.7222 13.6806L3.70719 1.6636C3.5037 1.56062 3.27906 1.50597 3.05085 1.50433Z" fill="white"/>
<path d="M3.51001 1.52688L4.57058 0.466309L23.2446 19.1406L22.1843 20.2009L3.51001 1.52688Z" fill="white"/>
<path d="M3.51929 28.4764L22.1908 9.80518L23.2511 10.8655L4.57958 29.537L3.51929 28.4764Z" fill="white"/>
</g>
<defs>
<clipPath id="clip0_688_127">
<rect width="30" height="30" fill="white"/>
</clipPath>
</defs>
</svg>
