<svg width="20" height="20" viewBox="0 0 20 20" fill="none" xmlns="http://www.w3.org/2000/svg">
<path d="M9.99845 5.65682L9.63692 5.27838C8.89352 4.50023 7.64614 3.49146 6.25538 3.49146C4.98572 3.49146 3.9378 3.93191 3.20851 4.65985C2.47928 5.38774 2.03845 6.43314 2.03845 7.69915C2.03845 9.08044 2.57888 10.2303 3.42398 11.284C4.27867 12.3496 5.41995 13.2874 6.59382 14.2493L6.59402 14.2495L6.62856 14.2778C7.71025 15.1651 8.87136 16.1175 9.76983 17.1812M9.99845 5.65682L9.643 4.58125C8.84968 3.83981 7.63998 2.99146 6.25538 2.99146C3.47768 2.99146 1.53845 4.92761 1.53845 7.69915C1.53845 10.753 3.94691 12.7268 6.27691 14.6361L6.29285 14.6491C7.3879 15.5474 8.51959 16.4757 9.38845 17.5045C9.53538 17.6776 9.75076 17.7776 9.97691 17.7776H10.0215C10.2485 17.7776 10.4631 17.6768 10.6092 17.5045M9.99845 5.65682L10.36 5.27838C11.103 4.50064 12.3535 3.49146 13.7454 3.49146C15.0146 3.49146 16.0623 3.93189 16.7916 4.65983C17.5207 5.38772 17.9615 6.43314 17.9615 7.69915C17.9615 9.08077 17.4208 10.2308 16.5754 11.2845C15.7204 12.3501 14.579 13.2877 13.4055 14.2492C13.4055 14.2493 13.4054 14.2493 13.4054 14.2493L13.3991 14.2545C12.3079 15.1482 11.1354 16.1085 10.2277 17.1814M9.99845 5.65682L13.7223 14.6361C12.6215 15.5376 11.4838 16.4707 10.6092 17.5045M9.76983 17.1812C9.77004 17.1814 9.77025 17.1817 9.77046 17.1819L9.3885 17.5045L9.76963 17.181C9.7697 17.181 9.76976 17.1811 9.76983 17.1812ZM9.76983 17.1812C9.82225 17.2428 9.89843 17.2776 9.97691 17.2776H10.0215C10.0997 17.2776 10.1754 17.2428 10.2277 17.1814M10.2277 17.1814C10.2276 17.1814 10.2276 17.1815 10.2275 17.1816L10.6092 17.5045M10.2277 17.1814C10.2278 17.1813 10.2278 17.1812 10.2279 17.1811L10.6092 17.5045" stroke="white"/>
</svg>
